<svg width="1728" height="1333" viewBox="0 0 1728 1333" fill="none" xmlns="http://www.w3.org/2000/svg">
<g clip-path="url(#clip0_752_506)">
<path d="M1947.39 -48.8766C1979.91 4.37282 1982.27 72.6595 1958.58 150.624C1934.88 228.588 1885.15 316.172 1813.58 407.938C1670.46 591.467 1440.09 791.639 1156.4 964.932C872.71 1138.22 589.449 1251.8 360.821 1295.36C246.506 1317.14 145.876 1321.41 65.6929 1306.9C-14.4913 1292.39 -74.1705 1259.12 -106.698 1205.87C-139.226 1152.62 -141.584 1084.33 -117.888 1006.37C-94.1916 928.403 -44.4563 840.819 27.1073 749.053C170.232 565.524 400.599 365.353 684.289 192.06C967.979 18.7666 1251.24 -94.813 1479.87 -138.37C1594.18 -160.149 1694.81 -164.416 1775 -149.907C1855.18 -135.398 1914.86 -102.126 1947.39 -48.8766Z" stroke="url(#paint0_linear_752_506)"/>
<path d="M2085.06 345.404C2100.78 405.789 2083.26 471.835 2038.01 539.601C1992.76 607.367 1919.8 676.801 1824.73 743.921C1634.61 878.156 1356.16 1003.07 1034.45 1086.81C712.737 1170.56 408.724 1197.27 177.277 1172.77C61.5515 1160.53 -36.0041 1135.48 -108.554 1098.38C-181.104 1061.28 -228.596 1012.15 -244.315 951.767C-260.034 891.381 -242.523 825.335 -197.27 757.569C-152.019 689.803 -79.0577 620.369 16.0075 553.25C206.135 419.014 484.586 294.104 806.296 210.359C1128.01 126.614 1432.02 99.9017 1663.47 124.397C1779.19 136.645 1876.75 161.692 1949.3 198.793C2021.85 235.893 2069.34 285.018 2085.06 345.404Z" stroke="url(#paint1_linear_752_506)"/>
<circle cx="1522.09" cy="963.589" r="118.5" fill="url(#paint2_radial_752_506)"/>
<ellipse cx="133.086" cy="627.589" rx="36.5" ry="36.5" transform="rotate(-180 133.086 627.589)" fill="url(#paint3_radial_752_506)"/>
</g>
<defs>
<linearGradient id="paint0_linear_752_506" x1="684.028" y1="191.633" x2="1156.66" y2="965.358" gradientUnits="userSpaceOnUse">
<stop stop-color="#FB0404" stop-opacity="0.7"/>
<stop offset="1" stop-color="#4285F4" stop-opacity="0.29"/>
</linearGradient>
<linearGradient id="paint1_linear_752_506" x1="806.17" y1="209.875" x2="1034.57" y2="1087.29" gradientUnits="userSpaceOnUse">
<stop stop-color="#4285F4"/>
<stop offset="1" stop-color="#FF0000" stop-opacity="0.33"/>
</linearGradient>
<radialGradient id="paint2_radial_752_506" cx="0" cy="0" r="1" gradientUnits="userSpaceOnUse" gradientTransform="translate(1621.27 877.824) rotate(138.671) scale(245.863)">
<stop stop-color="#FBBC04"/>
<stop offset="0.336805" stop-color="#0F9D58"/>
<stop offset="0.685764" stop-color="#4285F4"/>
<stop offset="1" stop-color="#EA4335"/>
</radialGradient>
<radialGradient id="paint3_radial_752_506" cx="0" cy="0" r="1" gradientUnits="userSpaceOnUse" gradientTransform="translate(163.637 601.172) rotate(138.671) scale(75.7298 75.7298)">
<stop stop-color="#FBBC04"/>
<stop offset="0.336805" stop-color="#0F9D58"/>
<stop offset="0.685764" stop-color="#4285F4"/>
<stop offset="1" stop-color="#EA4335"/>
</radialGradient>
<clipPath id="clip0_752_506">
<rect width="1728" height="1333" fill="white"/>
</clipPath>
</defs>
</svg>
