<svg width="142" height="44" viewBox="0 0 142 44" fill="none" xmlns="http://www.w3.org/2000/svg">
<g clip-path="url(#clip0_4280_10252)">
<mask id="mask0_4280_10252" style="mask-type:luminance" maskUnits="userSpaceOnUse" x="0" y="0" width="10" height="10">
<path d="M0.195312 4.82922C0.195312 7.33705 2.22023 9.39475 4.75941 9.39475C7.26646 9.39475 9.32352 7.3692 9.32352 4.82922C9.32352 2.32138 7.2986 0.263672 4.75941 0.263672C2.22023 0.263672 0.195312 2.32138 0.195312 4.82922Z" fill="white"/>
</mask>
<g mask="url(#mask0_4280_10252)">
<path d="M9.22717 -0.540039L10.095 9.29839L0.259663 10.1665L-0.608154 0.328061L9.22717 -0.540039Z" fill="url(#paint0_linear_4280_10252)"/>
</g>
<mask id="mask1_4280_10252" style="mask-type:luminance" maskUnits="userSpaceOnUse" x="1" y="11" width="11" height="28">
<path d="M1.09521 11.1953V25.6957C1.09521 26.7567 1.19164 27.7856 1.41663 28.8144C1.48091 29.1681 1.57733 29.4896 1.67376 29.8112C1.96303 30.7757 2.34874 31.7403 2.83086 32.6084C2.99157 32.8977 3.15228 33.1871 3.31298 33.4764C3.40941 33.6372 3.53797 33.798 3.6344 33.9587C3.73082 34.1195 3.85939 34.3124 3.98796 34.441C4.69507 35.3734 5.49862 36.2415 6.43072 36.981C6.59143 37.1417 6.75214 37.2703 6.94499 37.399C7.52354 37.8491 8.13422 38.2349 8.77705 38.5886C8.87348 38.6529 9.00205 38.685 9.09847 38.7493C9.06633 38.5564 9.06633 38.3957 9.06633 38.2027C9.06633 36.2415 9.93416 34.4732 11.2841 33.2192C11.7984 32.737 11.7984 31.9653 11.2198 31.5152C9.45203 30.1648 8.29493 28.0428 8.29493 25.6314V12.9637V11.1953H1.09521Z" fill="white"/>
</mask>
<g mask="url(#mask1_4280_10252)">
<path d="M11.7984 10.2627L14.2733 38.5562L1.19169 39.7137L-1.2832 11.388L11.7984 10.2627Z" fill="url(#paint1_linear_4280_10252)"/>
</g>
<path d="M30.4726 25.6959C30.4726 26.7569 30.3762 27.7858 30.1512 28.8146C30.0869 29.1683 29.9905 29.4898 29.8941 29.8113C29.7012 30.4865 29.4762 31.0974 29.187 31.7083C29.0584 32.0298 28.8977 32.3192 28.737 32.6085C28.5763 32.8979 28.4156 33.1872 28.2549 33.4766C27.4192 34.827 26.3585 36.0166 25.1371 37.0133C25.0086 37.1419 24.8478 37.2384 24.6871 37.367C23.98 37.9135 23.2408 38.3958 22.4051 38.8138C22.4372 38.6209 22.4372 38.4601 22.4372 38.2672C22.4372 36.2738 21.6015 34.5055 20.2195 33.2837C19.7052 32.8014 19.7052 32.0298 20.2837 31.5797C22.4372 29.9399 23.6908 27.1106 23.0158 24.024C22.4372 21.3233 20.2837 19.1048 17.5838 18.4939C12.7305 17.3365 8.39136 21.0339 8.39136 25.6959V13.0281C8.93776 12.7066 9.48417 12.4172 10.0949 12.1922C10.3841 12.0636 10.6734 11.9671 10.9305 11.8707C11.252 11.7742 11.5734 11.6456 11.8948 11.5813C12.2162 11.4848 12.5376 11.4205 12.8269 11.3562C13.7911 11.1633 14.7875 11.0669 15.7839 11.0669C23.8836 11.0026 30.4726 17.5615 30.4726 25.6959Z" fill="#6834FF"/>
<path d="M36.0652 2.93232C36.0652 1.90347 36.8366 1.13184 37.8651 1.13184C38.8936 1.13184 39.6972 1.90347 39.6972 2.93232C39.6972 3.96118 38.9258 4.73282 37.8651 4.73282C36.8687 4.73282 36.0652 3.92903 36.0652 2.93232Z" fill="#AB8FFF"/>
<path d="M39.2794 6.79053H36.4509V19.7155H39.2794V6.79053Z" fill="#0B1331"/>
<path d="M41.6899 6.79027H44.5184V8.43001C45.5469 7.17609 47.0576 6.46875 48.8897 6.46875C51.9431 6.46875 54.0002 8.49431 54.0002 11.5487V15.7606C54.0002 16.5001 54.418 16.9502 55.1573 16.9502H55.4144V19.6831H54.6109C52.361 19.6831 51.1717 18.5578 51.1717 16.4036V12.5133C51.1717 10.552 49.9182 9.2338 47.9576 9.2338C45.9005 9.2338 44.5506 10.5842 44.5506 12.5776V19.7153H41.7221V6.79027H41.6899Z" fill="#0B1331"/>
<path d="M57.3111 15.7288V9.3628H55.1255V6.79067H56.4433C57.0861 6.79067 57.4718 6.437 57.4718 5.76182V3.28613H60.1396V6.79067H63.3216V9.3628H60.1396V15.2787C60.1396 16.404 60.8467 17.1114 62.0359 17.1114H63.3216V19.7157H61.6181C58.8218 19.7157 57.3111 18.301 57.3111 15.7288Z" fill="#0B1331"/>
<path d="M64.4463 13.2528C64.4463 9.39463 67.4033 6.50098 71.3246 6.50098C75.278 6.50098 78.235 9.42678 78.235 13.285C78.235 13.5744 78.2029 14.0566 78.1708 14.346H67.4676C67.8854 16.2108 69.4283 17.4647 71.4532 17.4647C72.9317 17.4647 74.2495 16.8217 74.8923 15.825H78.0422C77.0137 18.3328 74.4745 20.0368 71.421 20.0368C67.4033 20.0047 64.4463 17.111 64.4463 13.2528ZM67.4997 12.0311H75.1816C74.7638 10.2627 73.221 9.07311 71.3246 9.07311C69.4604 9.04096 67.9497 10.2306 67.4997 12.0311Z" fill="#0B1331"/>
<path d="M88.0381 6.79053H91.2844L95.0449 16.2431L96.9734 11.5811C97.7127 9.68419 98.002 8.1409 97.7127 6.79053H100.638C100.927 8.26951 100.638 10.0379 99.7376 12.192L96.5235 19.7155H93.5664L88.0381 6.79053Z" fill="#0B1331"/>
<path d="M102.213 2.93232C102.213 1.90347 102.984 1.13184 104.013 1.13184C105.041 1.13184 105.845 1.90347 105.845 2.93232C105.845 3.96118 105.074 4.73282 104.013 4.73282C102.984 4.73282 102.213 3.92903 102.213 2.93232Z" fill="#AB8FFF"/>
<path d="M105.395 6.79053H102.566V19.7155H105.395V6.79053Z" fill="#0B1331"/>
<path d="M86.5277 6.79053V9.61988H82.7671C82.7671 8.04445 84.0206 6.79053 85.5956 6.79053H86.5277Z" fill="#0B1331"/>
<path d="M82.7669 6.79053H79.9385V19.7155H82.7669V6.79053Z" fill="#0B1331"/>
<path d="M107.034 13.2528C107.034 9.39463 109.991 6.50098 113.912 6.50098C117.865 6.50098 120.822 9.42678 120.822 13.285C120.822 13.5744 120.79 14.0566 120.758 14.346H110.087C110.505 16.2108 112.048 17.4647 114.073 17.4647C115.551 17.4647 116.869 16.8217 117.512 15.825H120.662C119.633 18.3328 117.094 20.0368 114.041 20.0368C109.991 20.0047 107.034 17.111 107.034 13.2528ZM110.087 12.0311H117.769C117.351 10.2627 115.808 9.07311 113.912 9.07311C112.048 9.04096 110.537 10.2306 110.087 12.0311Z" fill="#0B1331"/>
<path d="M120.726 6.79053H123.94L126.994 16.1788L130.144 6.79053H133.068L136.218 16.1788L137.793 11.5811C138.372 9.65204 138.725 8.17305 138.436 6.79053H141.361C141.65 8.30166 141.232 10.0057 140.461 12.2242L137.697 19.6834H134.772L131.59 10.1022L128.408 19.6834H125.483L120.726 6.79053Z" fill="#0B1331"/>
<path d="M36.3545 21.4194H38.5401V27.9141C39.6329 26.3065 41.4007 25.2776 43.5542 25.2776C47.2505 25.2776 50.0147 28.1713 50.0147 32.0295C50.0147 35.8877 47.2505 38.7814 43.5542 38.7814C41.4007 38.7814 39.6329 37.7847 38.5401 36.1449V38.4598H36.3545V21.4194ZM47.7326 32.0295C47.7326 29.3609 45.772 27.3675 43.1042 27.3675C40.4686 27.3675 38.508 29.3609 38.508 32.0295C38.508 34.6981 40.4686 36.6915 43.1042 36.6915C45.772 36.6915 47.7326 34.6981 47.7326 32.0295Z" fill="#0B1331"/>
<path d="M51.1396 33.7013V25.599H53.3253V33.0582C53.3253 35.2446 54.7074 36.6592 56.8608 36.6592C59.1108 36.6592 60.6214 35.1802 60.6214 32.9939V25.5669H62.807V35.0838C62.807 35.8554 63.2892 36.3699 64.0927 36.3699H64.3177V38.4597H63.6749C62.0678 38.4597 61.0392 37.7524 60.75 36.4342C59.7536 37.9131 58.2108 38.7491 56.1859 38.7491C53.1646 38.7812 51.1396 36.7557 51.1396 33.7013Z" fill="#0B1331"/>
<path d="M64.3501 32.0295C64.3501 28.2034 67.1143 25.2776 70.7784 25.2776C72.9319 25.2776 74.6997 26.2743 75.7925 27.9141V21.4194H77.9781V35.0839C77.9781 35.8556 78.4924 36.37 79.2638 36.37H79.5209V38.4598H78.846C77.1103 38.4598 76.0818 37.6239 75.8568 36.0806C74.764 37.7204 72.9641 38.7492 70.8106 38.7492C67.1143 38.7814 64.3501 35.8877 64.3501 32.0295ZM75.8246 32.0295C75.8246 29.3609 73.864 27.3675 71.2284 27.3675C68.5607 27.3675 66.6 29.3609 66.6 32.0295C66.6 34.6981 68.5607 36.6915 71.2284 36.6915C73.8319 36.6915 75.8246 34.6981 75.8246 32.0295Z" fill="#0B1331"/>
<path d="M79.6172 32.0295C79.6172 28.2034 82.3814 25.2776 86.0455 25.2776C88.199 25.2776 89.9668 26.2743 91.0596 27.9141V21.4194H93.2452V35.0839C93.2452 35.8556 93.7595 36.37 94.5309 36.37H94.788V38.4598H94.1131C92.3774 38.4598 91.3489 37.6239 91.1239 36.0806C90.0311 37.7204 88.2311 38.7492 86.0777 38.7492C82.3814 38.7814 79.6172 35.8877 79.6172 32.0295ZM91.0596 32.0295C91.0596 29.3609 89.099 27.3675 86.4633 27.3675C83.7956 27.3675 81.835 29.3609 81.835 32.0295C81.835 34.6981 83.7956 36.6915 86.4633 36.6915C89.099 36.6915 91.0596 34.6981 91.0596 32.0295Z" fill="#0B1331"/>
<path d="M95.5913 33.1226V25.5991H97.7769V32.5117C97.7769 34.6981 99.159 36.1127 101.313 36.1127C103.562 36.1127 105.073 34.6659 105.073 32.4796V25.6313H107.259V37.8811C107.259 41.3213 104.752 43.5719 101.377 43.5719C98.6126 43.5719 96.3948 41.9965 95.752 39.4565H98.0019C98.4519 40.7426 99.8661 41.5785 101.409 41.5785C103.466 41.5785 105.105 40.1317 105.105 37.9775V36.0163C104.109 37.431 102.566 38.2026 100.67 38.2026C97.6162 38.2026 95.5913 36.177 95.5913 33.1226Z" fill="#0B1331"/>
</g>
<defs>
<linearGradient id="paint0_linear_4280_10252" x1="4.441" y1="1.48664" x2="7.5492" y2="36.9977" gradientUnits="userSpaceOnUse">
<stop stop-color="#AB8FFF"/>
<stop offset="0.9897" stop-color="#693AF4"/>
<stop offset="1" stop-color="#693AF4"/>
</linearGradient>
<linearGradient id="paint1_linear_4280_10252" x1="4.12307" y1="-2.07133" x2="7.52764" y2="36.8259" gradientUnits="userSpaceOnUse">
<stop stop-color="#AB8FFF"/>
<stop offset="0.9897" stop-color="#693AF4"/>
<stop offset="1" stop-color="#693AF4"/>
</linearGradient>
<clipPath id="clip0_4280_10252">
<rect width="141.735" height="44" fill="white"/>
</clipPath>
</defs>
</svg>
